<svg xmlns="http://www.w3.org/2000/svg" viewBox="0 0 24 24" fill="none" stroke="currentColor" stroke-width="2" stroke-linecap="round" stroke-linejoin="round" role="img" aria-label="مطرقة"><title>مطرقة</title><path d="M15 12l-8.5 8.5a2.12 2.12 0 1 1-3-3L12 9"/><path d="M17.64 15L22 10.64"/><path d="M20.91 11.7l-1.25-1.25c-.6-.6-.93-1.4-.93-2.25v-.86L16.01 4.6a5.56 5.56 0 0 0-3.94-1.64h-.5l1.96 1.96c.39.39.39 1.02 0 1.41l-.78.78c-.39.39-1.02.39-1.41 0L9.38 5.15v.5c0 1.48.59 2.89 1.64 3.93l2.74 2.73h.84c.83 0 1.65.33 2.25.93l1.25 1.25"/></svg>
